<svg width="153" height="59" viewBox="0 0 153 59" fill="none" xmlns="http://www.w3.org/2000/svg">
<path d="M6.6875 12.7227C7.53125 12.7539 8.25 13.0664 8.84375 13.6602C9.4375 14.2227 9.75 14.9258 9.78125 15.7695V23.5977H25.0156V15.7695C25.0469 14.8945 25.375 14.1758 26 13.6133C26.625 13.0195 27.375 12.7227 28.25 12.7227C29.0938 12.7539 29.8125 13.0664 30.4062 13.6602C31 14.2227 31.3125 14.9258 31.3438 15.7695V38.7383C31.1562 40.6133 30.125 41.6289 28.25 41.7852C27.375 41.7852 26.6094 41.5039 25.9531 40.9414C25.3281 40.3477 25.0156 39.6133 25.0156 38.7383V29.8789H9.78125V38.7383C9.59375 40.6133 8.5625 41.6289 6.6875 41.7852C5.8125 41.7852 5.04688 41.5039 4.39062 40.9414C3.76562 40.3477 3.45312 39.6133 3.45312 38.7383V15.7695C3.48438 14.8945 3.8125 14.1758 4.4375 13.6133C5.0625 13.0195 5.8125 12.7227 6.6875 12.7227ZM57.5 13.4727C59.6875 13.5977 61.4844 14.4414 62.8906 16.0039C64.2969 17.5352 65.3125 19.2852 65.9375 21.2539C66.5625 23.2227 66.875 25.2383 66.875 27.3008C66.875 29.3633 66.5625 31.3789 65.9375 33.3477C65.3438 35.3164 64.3281 37.082 62.8906 38.6445C61.4844 40.1758 59.6875 41.0039 57.5 41.1289H40.25C39.4062 41.0977 38.6875 40.8008 38.0938 40.2383C37.5312 39.6445 37.2344 38.9258 37.2031 38.082V26.457C37.2344 25.582 37.5625 24.8633 38.1875 24.3008C38.8125 23.707 39.5625 23.4102 40.4375 23.4102C41.2812 23.4414 42 23.7539 42.5938 24.3477C43.1875 24.9102 43.5 25.6133 43.5312 26.457V33.582C43.5312 34.4258 43.9688 34.8477 44.8438 34.8477H55.9062C57.0938 34.7852 58.0781 34.332 58.8594 33.4883C59.6406 32.6445 60.2031 31.6914 60.5469 30.6289C60.9219 29.5352 61.1094 28.4258 61.1094 27.3008C61.1094 26.1758 60.9219 25.082 60.5469 24.0195C60.2031 22.9258 59.6406 21.957 58.8594 21.1133C58.0781 20.2695 57.0938 19.8164 55.9062 19.7539H40.25C38.375 19.5977 37.3594 18.582 37.2031 16.707C37.2031 15.832 37.4844 15.082 38.0469 14.457C38.6406 13.832 39.375 13.5039 40.25 13.4727H57.5ZM81.9219 12.207C83.0156 12.207 84.0781 12.3945 85.1094 12.7695C86.1719 13.1445 87.1875 13.6914 88.1562 14.4102C88.3125 14.5664 88.4844 14.7227 88.6719 14.8789C88.8281 14.7227 89 14.5664 89.1875 14.4102C90.1562 13.6914 91.1562 13.1445 92.1875 12.7695C93.25 12.3945 94.3125 12.207 95.375 12.207C96.4688 12.207 97.5312 12.3945 98.5625 12.7695C99.625 13.1445 100.625 13.707 101.562 14.457C102.531 15.1758 103.375 16.1445 104.094 17.3633C104.844 18.582 105.219 20.0352 105.219 21.7227V38.6445C105.031 40.5195 104 41.5352 102.125 41.6914C101.25 41.6914 100.484 41.4102 99.8281 40.8477C99.2031 40.2539 98.8906 39.5195 98.8906 38.6445V22.0977C98.8906 21.3477 98.75 20.7227 98.4688 20.2227C98.1875 19.6914 97.875 19.2852 97.5312 19.0039C97.1875 18.6914 96.8281 18.4727 96.4531 18.3477C96.0781 18.1914 95.7031 18.1133 95.3281 18.1133C94.9531 18.1133 94.5781 18.1914 94.2031 18.3477C93.8594 18.4727 93.5156 18.6914 93.1719 19.0039C92.8281 19.2852 92.5156 19.6914 92.2344 20.2227C91.9531 20.7227 91.7969 21.3477 91.7656 22.0977V38.6445C91.5781 40.5195 90.5469 41.5352 88.6719 41.6914C87.7969 41.6914 87.0312 41.4102 86.375 40.8477C85.75 40.2539 85.4375 39.5195 85.4375 38.6445V22.0977C85.4375 21.3477 85.2969 20.7227 85.0156 20.2227C84.7344 19.6914 84.4219 19.2852 84.0781 19.0039C83.7344 18.6914 83.375 18.4727 83 18.3477C82.625 18.1914 82.25 18.1133 81.875 18.1133C81.5 18.1133 81.125 18.1914 80.75 18.3477C80.4062 18.4727 80.0625 18.6914 79.7188 19.0039C79.375 19.2852 79.0625 19.6914 78.7812 20.2227C78.5 20.7227 78.3438 21.3477 78.3125 22.0977V38.6445C78.1562 40.5195 77.1406 41.5352 75.2656 41.6914C74.3906 41.6914 73.625 41.4102 72.9688 40.8477C72.3438 40.2539 72.0312 39.5195 72.0312 38.6445V21.7227C72.0938 20.0352 72.4844 18.582 73.2031 17.3633C73.9219 16.1445 74.7656 15.1758 75.7344 14.457C76.7031 13.707 77.7031 13.1445 78.7344 12.7695C79.7969 12.3945 80.8594 12.207 81.9219 12.207ZM110.141 37.9883C110.141 37.1133 110.438 36.3789 111.031 35.7852C111.656 35.1602 112.406 34.8477 113.281 34.8477H122.281V19.7539H113.281C112.406 19.7539 111.672 19.4414 111.078 18.8164C110.453 18.2227 110.141 17.4883 110.141 16.6133C110.141 15.7383 110.438 15.0039 111.031 14.4102C111.656 13.7852 112.406 13.4727 113.281 13.4727H137.562C138.438 13.4727 139.188 13.7695 139.812 14.3633C140.406 14.9883 140.703 15.7383 140.703 16.6133C140.703 17.4883 140.391 18.2383 139.766 18.8633C139.172 19.457 138.438 19.7539 137.562 19.7539H128.609V34.8477H137.562C138.438 34.8477 139.188 35.1445 139.812 35.7383C140.406 36.3633 140.703 37.1133 140.703 37.9883C140.703 38.8633 140.391 39.6133 139.766 40.2383C139.172 40.832 138.438 41.1289 137.562 41.1289H113.281C112.406 41.1289 111.672 40.8164 111.078 40.1914C110.453 39.5977 110.141 38.8633 110.141 37.9883Z" fill="white"/>
<circle cx="148.5" cy="16.2227" r="4.25" stroke="white" stroke-width="0.5"/>
<path d="M147.046 18.2227V13.859H148.601C148.939 13.859 149.22 13.9173 149.443 14.0337C149.667 14.1502 149.835 14.3114 149.946 14.5174C150.056 14.7219 150.112 14.9585 150.112 15.2269C150.112 15.494 150.056 15.729 149.944 15.9322C149.833 16.1339 149.665 16.2908 149.441 16.4031C149.218 16.5153 148.937 16.5714 148.599 16.5714H147.421V16.0046H148.539C148.752 16.0046 148.926 15.9741 149.059 15.913C149.194 15.8519 149.293 15.7631 149.355 15.6467C149.418 15.5302 149.449 15.3903 149.449 15.2269C149.449 15.0621 149.417 14.9194 149.353 14.7987C149.291 14.6779 149.192 14.5856 149.057 14.5217C148.924 14.4563 148.748 14.4237 148.531 14.4237H147.704V18.2227H147.046ZM149.2 16.2539L150.278 18.2227H149.528L148.471 16.2539H149.2Z" fill="white"/>
</svg>
