<svg width="191" height="172" viewBox="0 0 191 172" fill="none" xmlns="http://www.w3.org/2000/svg">
<path d="M25.6875 12.7227C26.5312 12.7539 27.25 13.0664 27.8438 13.6602C28.4375 14.2227 28.75 14.9258 28.7812 15.7695V23.5977H44.0156V15.7695C44.0469 14.8945 44.375 14.1758 45 13.6133C45.625 13.0195 46.375 12.7227 47.25 12.7227C48.0938 12.7539 48.8125 13.0664 49.4062 13.6602C50 14.2227 50.3125 14.9258 50.3438 15.7695V38.7383C50.1562 40.6133 49.125 41.6289 47.25 41.7852C46.375 41.7852 45.6094 41.5039 44.9531 40.9414C44.3281 40.3477 44.0156 39.6133 44.0156 38.7383V29.8789H28.7812V38.7383C28.5938 40.6133 27.5625 41.6289 25.6875 41.7852C24.8125 41.7852 24.0469 41.5039 23.3906 40.9414C22.7656 40.3477 22.4531 39.6133 22.4531 38.7383V15.7695C22.4844 14.8945 22.8125 14.1758 23.4375 13.6133C24.0625 13.0195 24.8125 12.7227 25.6875 12.7227ZM76.5 13.4727C78.6875 13.5977 80.4844 14.4414 81.8906 16.0039C83.2969 17.5352 84.3125 19.2852 84.9375 21.2539C85.5625 23.2227 85.875 25.2383 85.875 27.3008C85.875 29.3633 85.5625 31.3789 84.9375 33.3477C84.3438 35.3164 83.3281 37.082 81.8906 38.6445C80.4844 40.1758 78.6875 41.0039 76.5 41.1289H59.25C58.4062 41.0977 57.6875 40.8008 57.0938 40.2383C56.5312 39.6445 56.2344 38.9258 56.2031 38.082V26.457C56.2344 25.582 56.5625 24.8633 57.1875 24.3008C57.8125 23.707 58.5625 23.4102 59.4375 23.4102C60.2812 23.4414 61 23.7539 61.5938 24.3477C62.1875 24.9102 62.5 25.6133 62.5312 26.457V33.582C62.5312 34.4258 62.9688 34.8477 63.8438 34.8477H74.9062C76.0938 34.7852 77.0781 34.332 77.8594 33.4883C78.6406 32.6445 79.2031 31.6914 79.5469 30.6289C79.9219 29.5352 80.1094 28.4258 80.1094 27.3008C80.1094 26.1758 79.9219 25.082 79.5469 24.0195C79.2031 22.9258 78.6406 21.957 77.8594 21.1133C77.0781 20.2695 76.0938 19.8164 74.9062 19.7539H59.25C57.375 19.5977 56.3594 18.582 56.2031 16.707C56.2031 15.832 56.4844 15.082 57.0469 14.457C57.6406 13.832 58.375 13.5039 59.25 13.4727H76.5ZM100.922 12.207C102.016 12.207 103.078 12.3945 104.109 12.7695C105.172 13.1445 106.188 13.6914 107.156 14.4102C107.312 14.5664 107.484 14.7227 107.672 14.8789C107.828 14.7227 108 14.5664 108.188 14.4102C109.156 13.6914 110.156 13.1445 111.188 12.7695C112.25 12.3945 113.312 12.207 114.375 12.207C115.469 12.207 116.531 12.3945 117.562 12.7695C118.625 13.1445 119.625 13.707 120.562 14.457C121.531 15.1758 122.375 16.1445 123.094 17.3633C123.844 18.582 124.219 20.0352 124.219 21.7227V38.6445C124.031 40.5195 123 41.5352 121.125 41.6914C120.25 41.6914 119.484 41.4102 118.828 40.8477C118.203 40.2539 117.891 39.5195 117.891 38.6445V22.0977C117.891 21.3477 117.75 20.7227 117.469 20.2227C117.188 19.6914 116.875 19.2852 116.531 19.0039C116.188 18.6914 115.828 18.4727 115.453 18.3477C115.078 18.1914 114.703 18.1133 114.328 18.1133C113.953 18.1133 113.578 18.1914 113.203 18.3477C112.859 18.4727 112.516 18.6914 112.172 19.0039C111.828 19.2852 111.516 19.6914 111.234 20.2227C110.953 20.7227 110.797 21.3477 110.766 22.0977V38.6445C110.578 40.5195 109.547 41.5352 107.672 41.6914C106.797 41.6914 106.031 41.4102 105.375 40.8477C104.75 40.2539 104.438 39.5195 104.438 38.6445V22.0977C104.438 21.3477 104.297 20.7227 104.016 20.2227C103.734 19.6914 103.422 19.2852 103.078 19.0039C102.734 18.6914 102.375 18.4727 102 18.3477C101.625 18.1914 101.25 18.1133 100.875 18.1133C100.5 18.1133 100.125 18.1914 99.75 18.3477C99.4062 18.4727 99.0625 18.6914 98.7188 19.0039C98.375 19.2852 98.0625 19.6914 97.7812 20.2227C97.5 20.7227 97.3438 21.3477 97.3125 22.0977V38.6445C97.1562 40.5195 96.1406 41.5352 94.2656 41.6914C93.3906 41.6914 92.625 41.4102 91.9688 40.8477C91.3438 40.2539 91.0312 39.5195 91.0312 38.6445V21.7227C91.0938 20.0352 91.4844 18.582 92.2031 17.3633C92.9219 16.1445 93.7656 15.1758 94.7344 14.457C95.7031 13.707 96.7031 13.1445 97.7344 12.7695C98.7969 12.3945 99.8594 12.207 100.922 12.207ZM129.141 37.9883C129.141 37.1133 129.438 36.3789 130.031 35.7852C130.656 35.1602 131.406 34.8477 132.281 34.8477H141.281V19.7539H132.281C131.406 19.7539 130.672 19.4414 130.078 18.8164C129.453 18.2227 129.141 17.4883 129.141 16.6133C129.141 15.7383 129.438 15.0039 130.031 14.4102C130.656 13.7852 131.406 13.4727 132.281 13.4727H156.562C157.438 13.4727 158.188 13.7695 158.812 14.3633C159.406 14.9883 159.703 15.7383 159.703 16.6133C159.703 17.4883 159.391 18.2383 158.766 18.8633C158.172 19.457 157.438 19.7539 156.562 19.7539H147.609V34.8477H156.562C157.438 34.8477 158.188 35.1445 158.812 35.7383C159.406 36.3633 159.703 37.1133 159.703 37.9883C159.703 38.8633 159.391 39.6133 158.766 40.2383C158.172 40.832 157.438 41.1289 156.562 41.1289H132.281C131.406 41.1289 130.672 40.8164 130.078 40.1914C129.453 39.5977 129.141 38.8633 129.141 37.9883Z" fill="white"/>
<circle cx="167.5" cy="16.2227" r="4.25" stroke="white" stroke-width="0.5"/>
<path d="M166.046 18.2227V13.859H167.601C167.939 13.859 168.22 13.9173 168.443 14.0337C168.667 14.1502 168.835 14.3114 168.946 14.5174C169.056 14.7219 169.112 14.9585 169.112 15.2269C169.112 15.494 169.056 15.729 168.944 15.9322C168.833 16.1339 168.665 16.2908 168.441 16.4031C168.218 16.5153 167.937 16.5714 167.599 16.5714H166.421V16.0046H167.539C167.752 16.0046 167.926 15.9741 168.059 15.913C168.194 15.8519 168.293 15.7631 168.355 15.6467C168.418 15.5302 168.449 15.3903 168.449 15.2269C168.449 15.0621 168.417 14.9194 168.353 14.7987C168.291 14.6779 168.192 14.5856 168.057 14.5217C167.924 14.4563 167.748 14.4237 167.531 14.4237H166.704V18.2227H166.046ZM168.2 16.2539L169.278 18.2227H168.528L167.471 16.2539H168.2Z" fill="white"/>
<path d="M46.2983 99.2227V81.7681H49.9886V88.9698H57.4801V81.7681H61.1619V99.2227H57.4801V92.0124H49.9886V99.2227H46.2983ZM70.392 99.2227H64.2045V81.7681H70.4432C72.1989 81.7681 73.7102 82.1175 74.9773 82.8164C76.2443 83.5096 77.2188 84.5067 77.9006 85.8079C78.5881 87.109 78.9318 88.6658 78.9318 90.4783C78.9318 92.2965 78.5881 93.859 77.9006 95.1658C77.2188 96.4727 76.2386 97.4755 74.9602 98.1744C73.6875 98.8732 72.1648 99.2227 70.392 99.2227ZM67.8949 96.0607H70.2386C71.3295 96.0607 72.2472 95.8675 72.9915 95.4812C73.7415 95.0891 74.304 94.484 74.679 93.6658C75.0597 92.842 75.25 91.7795 75.25 90.4783C75.25 89.1886 75.0597 88.1346 74.679 87.3164C74.304 86.4982 73.7443 85.896 73 85.5096C72.2557 85.1232 71.3381 84.93 70.2472 84.93H67.8949V96.0607ZM81.6655 81.7681H86.2166L91.0234 93.4954H91.228L96.0348 81.7681H100.586V99.2227H97.0064V87.8619H96.8615L92.3445 99.1374H89.907L85.3899 87.8192H85.245V99.2227H81.6655V81.7681ZM107.317 81.7681V99.2227H103.626V81.7681H107.317ZM115.805 99.2227V96.5636L122.018 90.8107C122.547 90.2994 122.99 89.8391 123.348 89.43C123.712 89.021 123.987 88.6204 124.175 88.2283C124.362 87.8306 124.456 87.4016 124.456 86.9414C124.456 86.43 124.339 85.9897 124.107 85.6204C123.874 85.2454 123.555 84.9585 123.152 84.7596C122.749 84.555 122.291 84.4528 121.78 84.4528C121.246 84.4528 120.78 84.5607 120.382 84.7766C119.984 84.9925 119.678 85.3022 119.462 85.7056C119.246 86.109 119.138 86.5891 119.138 87.146H115.635C115.635 86.0039 115.893 85.0124 116.411 84.1715C116.928 83.3306 117.652 82.68 118.584 82.2198C119.516 81.7596 120.589 81.5295 121.805 81.5295C123.055 81.5295 124.143 81.7511 125.07 82.1942C126.001 82.6317 126.726 83.2397 127.243 84.0181C127.76 84.7965 128.018 85.6886 128.018 86.6942C128.018 87.3533 127.888 88.0039 127.626 88.646C127.371 89.288 126.913 90.0011 126.254 90.7852C125.595 91.5636 124.666 92.4982 123.467 93.5891L120.919 96.0863V96.2056H128.249V99.2227H115.805ZM133.079 99.4442C132.516 99.4442 132.033 99.2454 131.63 98.8477C131.232 98.4442 131.033 97.9613 131.033 97.3988C131.033 96.842 131.232 96.3647 131.63 95.967C132.033 95.5692 132.516 95.3704 133.079 95.3704C133.624 95.3704 134.102 95.5692 134.511 95.967C134.92 96.3647 135.124 96.842 135.124 97.3988C135.124 97.7738 135.028 98.1175 134.835 98.43C134.647 98.7369 134.4 98.984 134.093 99.1715C133.786 99.3533 133.448 99.4442 133.079 99.4442ZM143.485 81.7681V99.2227H139.795V85.271H139.692L135.695 87.7766V84.5039L140.016 81.7681H143.485ZM38.8185 125.154V122.248L46.1055 110.768H48.6112V114.791H47.1282L42.5344 122.061V122.197H52.8896V125.154H38.8185ZM47.1964 128.223V124.268L47.2646 122.981V110.768H50.7248V128.223H47.1964ZM55.4506 128.223V110.768H59.141V118.464H59.3711L65.6523 110.768H70.0756L63.5984 118.583L70.1523 128.223H65.7376L60.9563 121.047L59.141 123.262V128.223H55.4506ZM85.0437 110.768V128.223H81.3533V114.271H81.2511L77.2539 116.777V113.504L81.5749 110.768H85.0437ZM89.1921 128.223V125.564L95.4052 119.811C95.9336 119.299 96.3768 118.839 96.7347 118.43C97.0984 118.021 97.3739 117.62 97.5614 117.228C97.7489 116.831 97.8427 116.402 97.8427 115.941C97.8427 115.43 97.7262 114.99 97.4933 114.62C97.2603 114.245 96.9421 113.958 96.5387 113.76C96.1353 113.555 95.6779 113.453 95.1665 113.453C94.6325 113.453 94.1665 113.561 93.7688 113.777C93.3711 113.993 93.0643 114.302 92.8484 114.706C92.6325 115.109 92.5245 115.589 92.5245 116.146H89.0217C89.0217 115.004 89.2802 114.012 89.7972 113.172C90.3143 112.331 91.0387 111.68 91.9705 111.22C92.9023 110.76 93.9762 110.529 95.1921 110.529C96.4421 110.529 97.5302 110.751 98.4563 111.194C99.3881 111.632 100.113 112.24 100.63 113.018C101.147 113.797 101.405 114.689 101.405 115.694C101.405 116.353 101.275 117.004 101.013 117.646C100.757 118.288 100.3 119.001 99.641 119.785C98.9819 120.564 98.0529 121.498 96.854 122.589L94.3058 125.086V125.206H101.635V128.223H89.1921ZM111.153 128.606C109.687 128.6 108.426 128.24 107.369 127.524C106.318 126.808 105.508 125.771 104.94 124.413C104.377 123.055 104.099 121.422 104.105 119.512C104.105 117.609 104.386 115.987 104.949 114.646C105.517 113.305 106.326 112.285 107.377 111.586C108.434 110.882 109.693 110.529 111.153 110.529C112.613 110.529 113.869 110.882 114.92 111.586C115.977 112.291 116.789 113.314 117.358 114.654C117.926 115.99 118.207 117.609 118.201 119.512C118.201 121.427 117.917 123.064 117.349 124.422C116.787 125.779 115.98 126.816 114.929 127.532C113.877 128.248 112.619 128.606 111.153 128.606ZM111.153 125.547C112.153 125.547 112.951 125.044 113.548 124.038C114.145 123.032 114.44 121.524 114.434 119.512C114.434 118.189 114.298 117.086 114.025 116.206C113.758 115.325 113.377 114.663 112.883 114.22C112.395 113.777 111.818 113.555 111.153 113.555C110.159 113.555 109.363 114.052 108.767 115.047C108.17 116.041 107.869 117.529 107.863 119.512C107.863 120.853 107.997 121.973 108.264 122.87C108.537 123.762 108.92 124.433 109.414 124.882C109.909 125.325 110.488 125.547 111.153 125.547ZM120.935 128.223V110.768H124.625V117.97H132.117V110.768H135.799V128.223H132.117V121.012H124.625V128.223H120.935ZM138.654 128.223V126.032L147.364 113.811H138.637V110.768H152V112.958L143.282 125.18H152.017V128.223H138.654Z" fill="white"/>
<path d="M8.15554 158.495C8.08736 157.92 7.81084 157.473 7.32599 157.154C6.84115 156.836 6.24645 156.677 5.5419 156.677C5.02675 156.677 4.57599 156.761 4.18963 156.927C3.80706 157.094 3.50781 157.323 3.2919 157.615C3.07978 157.906 2.97372 158.238 2.97372 158.609C2.97372 158.92 3.04759 159.187 3.19531 159.41C3.34683 159.63 3.54001 159.814 3.77486 159.961C4.00971 160.105 4.25592 160.225 4.51349 160.319C4.77107 160.41 5.00781 160.484 5.22372 160.541L6.40554 160.859C6.70857 160.939 7.04569 161.048 7.4169 161.189C7.7919 161.329 8.14986 161.52 8.49077 161.762C8.83546 162.001 9.11956 162.308 9.34304 162.683C9.56653 163.058 9.67827 163.518 9.67827 164.064C9.67827 164.692 9.51349 165.261 9.18395 165.768C8.85819 166.276 8.38092 166.679 7.75213 166.978C7.12713 167.278 6.36766 167.427 5.47372 167.427C4.64039 167.427 3.9188 167.293 3.30895 167.024C2.70289 166.755 2.22562 166.38 1.87713 165.899C1.53243 165.418 1.33736 164.859 1.2919 164.223H2.74645C2.78433 164.662 2.93205 165.026 3.18963 165.314C3.45099 165.598 3.78054 165.81 4.17827 165.95C4.57978 166.086 5.0116 166.154 5.47372 166.154C6.0116 166.154 6.49456 166.067 6.92259 165.893C7.35062 165.715 7.68963 165.469 7.93963 165.154C8.18963 164.836 8.31463 164.465 8.31463 164.041C8.31463 163.654 8.20668 163.34 7.99077 163.098C7.77486 162.855 7.49077 162.658 7.13849 162.507C6.78622 162.355 6.40554 162.223 5.99645 162.109L4.56463 161.7C3.65554 161.439 2.93584 161.065 2.40554 160.581C1.87524 160.096 1.61009 159.461 1.61009 158.677C1.61009 158.026 1.78622 157.458 2.13849 156.973C2.49455 156.484 2.97183 156.105 3.57031 155.836C4.17259 155.564 4.84493 155.427 5.58736 155.427C6.33736 155.427 7.00402 155.562 7.58736 155.831C8.17069 156.096 8.63281 156.459 8.97372 156.922C9.31842 157.384 9.50024 157.908 9.51918 158.495H8.15554ZM19.6314 155.586H21.0405V163.291C21.0405 164.086 20.853 164.797 20.478 165.422C20.1068 166.043 19.5822 166.533 18.9041 166.893C18.2261 167.249 17.4306 167.427 16.5178 167.427C15.6049 167.427 14.8094 167.249 14.1314 166.893C13.4534 166.533 12.9268 166.043 12.5518 165.422C12.1806 164.797 11.995 164.086 11.995 163.291V155.586H13.4041V163.177C13.4041 163.745 13.5291 164.251 13.7791 164.694C14.0291 165.134 14.3852 165.48 14.8473 165.734C15.3132 165.984 15.87 166.109 16.5178 166.109C17.1655 166.109 17.7223 165.984 18.1882 165.734C18.6541 165.48 19.0102 165.134 19.2564 164.694C19.5064 164.251 19.6314 163.745 19.6314 163.177V155.586ZM23.8544 167.223V155.586H27.7862C28.6991 155.586 29.4453 155.751 30.0249 156.081C30.6082 156.406 31.04 156.848 31.3203 157.404C31.6006 157.961 31.7408 158.583 31.7408 159.268C31.7408 159.954 31.6006 160.577 31.3203 161.137C31.0438 161.698 30.6158 162.145 30.0362 162.478C29.4567 162.808 28.7143 162.973 27.8089 162.973H24.9908V161.723H27.7635C28.3885 161.723 28.8904 161.615 29.2692 161.399C29.648 161.183 29.9226 160.891 30.093 160.524C30.2673 160.153 30.3544 159.734 30.3544 159.268C30.3544 158.802 30.2673 158.386 30.093 158.018C29.9226 157.651 29.6461 157.363 29.2635 157.154C28.8809 156.942 28.3733 156.836 27.7408 156.836H25.2635V167.223H23.8544ZM34.0107 167.223V155.586H41.0334V156.836H35.4197V160.768H40.6697V162.018H35.4197V165.973H41.1243V167.223H34.0107ZM43.5732 167.223V155.586H47.505C48.4141 155.586 49.1603 155.742 49.7436 156.052C50.3269 156.359 50.7588 156.781 51.0391 157.319C51.3194 157.857 51.4595 158.469 51.4595 159.154C51.4595 159.84 51.3194 160.448 51.0391 160.978C50.7588 161.509 50.3288 161.925 49.7493 162.228C49.1697 162.528 48.4292 162.677 47.5277 162.677H44.3459V161.404H47.4822C48.1035 161.404 48.6035 161.314 48.9822 161.132C49.3648 160.95 49.6413 160.692 49.8118 160.359C49.986 160.022 50.0732 159.62 50.0732 159.154C50.0732 158.689 49.986 158.281 49.8118 157.933C49.6375 157.584 49.3591 157.315 48.9766 157.126C48.594 156.933 48.0883 156.836 47.4595 156.836H44.9822V167.223H43.5732ZM49.0504 161.995L51.9141 167.223H50.2777L47.4595 161.995H49.0504ZM55.2166 155.586V167.223H53.8075V155.586H55.2166ZM67.8601 161.404C67.8601 162.632 67.6385 163.692 67.1953 164.586C66.7521 165.48 66.1442 166.17 65.3714 166.654C64.5987 167.139 63.7161 167.382 62.7237 167.382C61.7313 167.382 60.8487 167.139 60.076 166.654C59.3033 166.17 58.6953 165.48 58.2521 164.586C57.8089 163.692 57.5874 162.632 57.5874 161.404C57.5874 160.177 57.8089 159.117 58.2521 158.223C58.6953 157.329 59.3033 156.639 60.076 156.154C60.8487 155.67 61.7313 155.427 62.7237 155.427C63.7161 155.427 64.5987 155.67 65.3714 156.154C66.1442 156.639 66.7521 157.329 67.1953 158.223C67.6385 159.117 67.8601 160.177 67.8601 161.404ZM66.4964 161.404C66.4964 160.397 66.3279 159.547 65.9908 158.853C65.6574 158.16 65.2048 157.636 64.6328 157.279C64.0646 156.923 63.4283 156.745 62.7237 156.745C62.0192 156.745 61.3809 156.923 60.8089 157.279C60.2408 157.636 59.7881 158.16 59.451 158.853C59.1177 159.547 58.951 160.397 58.951 161.404C58.951 162.412 59.1177 163.262 59.451 163.956C59.7881 164.649 60.2408 165.173 60.8089 165.529C61.3809 165.886 62.0192 166.064 62.7237 166.064C63.4283 166.064 64.0646 165.886 64.6328 165.529C65.2048 165.173 65.6574 164.649 65.9908 163.956C66.3279 163.262 66.4964 162.412 66.4964 161.404ZM70.2294 167.223V155.586H74.1612C75.0703 155.586 75.8165 155.742 76.3999 156.052C76.9832 156.359 77.415 156.781 77.6953 157.319C77.9756 157.857 78.1158 158.469 78.1158 159.154C78.1158 159.84 77.9756 160.448 77.6953 160.978C77.415 161.509 76.9851 161.925 76.4055 162.228C75.826 162.528 75.0855 162.677 74.1839 162.677H71.0021V161.404H74.1385C74.7597 161.404 75.2597 161.314 75.6385 161.132C76.0211 160.95 76.2976 160.692 76.468 160.359C76.6423 160.022 76.7294 159.62 76.7294 159.154C76.7294 158.689 76.6423 158.281 76.468 157.933C76.2938 157.584 76.0154 157.315 75.6328 157.126C75.2502 156.933 74.7446 156.836 74.1158 156.836H71.6385V167.223H70.2294ZM75.7067 161.995L78.5703 167.223H76.9339L74.1158 161.995H75.7067ZM84.7592 167.223V166.2L88.6001 161.995C89.0509 161.503 89.4221 161.075 89.7138 160.711C90.0054 160.344 90.2214 159.999 90.3615 159.677C90.5054 159.351 90.5774 159.011 90.5774 158.654C90.5774 158.245 90.4789 157.891 90.282 157.592C90.0888 157.293 89.8236 157.062 89.4865 156.899C89.1494 156.736 88.7706 156.654 88.3501 156.654C87.9032 156.654 87.513 156.747 87.1797 156.933C86.8501 157.115 86.5945 157.37 86.4126 157.7C86.2346 158.029 86.1456 158.416 86.1456 158.859H84.8047C84.8047 158.177 84.9619 157.579 85.2763 157.064C85.5907 156.548 86.0187 156.147 86.5604 155.859C87.1058 155.571 87.7176 155.427 88.3956 155.427C89.0774 155.427 89.6816 155.571 90.2081 155.859C90.7346 156.147 91.1475 156.535 91.4467 157.024C91.746 157.512 91.8956 158.056 91.8956 158.654C91.8956 159.083 91.8179 159.501 91.6626 159.91C91.5111 160.315 91.246 160.768 90.8672 161.268C90.4922 161.764 89.9714 162.37 89.3047 163.086L86.6911 165.882V165.973H92.1001V167.223H84.7592ZM93.924 164.836V163.677L99.0376 155.586H99.8786V157.382H99.3104L95.4467 163.495V163.586H102.333V164.836H93.924ZM99.4013 167.223V164.484V163.944V155.586H100.742V167.223H99.4013ZM109.485 160.779V162.029H104.394V160.779H109.485ZM112.026 167.223V155.586H116.094C116.905 155.586 117.574 155.726 118.1 156.007C118.627 156.283 119.019 156.656 119.276 157.126C119.534 157.592 119.663 158.109 119.663 158.677C119.663 159.177 119.574 159.59 119.396 159.916C119.221 160.242 118.99 160.499 118.702 160.689C118.418 160.878 118.11 161.018 117.776 161.109V161.223C118.132 161.245 118.49 161.37 118.85 161.598C119.21 161.825 119.511 162.151 119.754 162.575C119.996 162.999 120.117 163.518 120.117 164.132C120.117 164.715 119.985 165.24 119.719 165.706C119.454 166.172 119.036 166.541 118.464 166.814C117.892 167.086 117.147 167.223 116.231 167.223H112.026ZM113.435 165.973H116.231C117.151 165.973 117.805 165.795 118.191 165.439C118.581 165.079 118.776 164.643 118.776 164.132C118.776 163.738 118.676 163.374 118.475 163.041C118.274 162.704 117.988 162.435 117.617 162.234C117.246 162.029 116.807 161.927 116.299 161.927H113.435V165.973ZM113.435 160.7H116.049C116.473 160.7 116.856 160.617 117.197 160.45C117.541 160.283 117.814 160.048 118.015 159.745C118.219 159.442 118.322 159.086 118.322 158.677C118.322 158.166 118.144 157.732 117.788 157.376C117.432 157.016 116.867 156.836 116.094 156.836H113.435V160.7ZM123.842 155.586V167.223H122.433V155.586H123.842ZM126.031 156.836V155.586H134.758V156.836H131.099V167.223H129.69V156.836H126.031ZM141.91 167.223H140.433L144.705 155.586H146.16L150.433 167.223H148.955L145.478 157.427H145.387L141.91 167.223ZM142.455 162.677H148.41V163.927H142.455V162.677ZM159.881 155.586H161.29V163.291C161.29 164.086 161.103 164.797 160.728 165.422C160.357 166.043 159.832 166.533 159.154 166.893C158.476 167.249 157.681 167.427 156.768 167.427C155.855 167.427 155.059 167.249 154.381 166.893C153.703 166.533 153.177 166.043 152.802 165.422C152.431 164.797 152.245 164.086 152.245 163.291V155.586H153.654V163.177C153.654 163.745 153.779 164.251 154.029 164.694C154.279 165.134 154.635 165.48 155.097 165.734C155.563 165.984 156.12 166.109 156.768 166.109C157.415 166.109 157.972 165.984 158.438 165.734C158.904 165.48 159.26 165.134 159.506 164.694C159.756 164.251 159.881 163.745 159.881 163.177V155.586ZM167.695 167.223H164.104V155.586H167.854C168.983 155.586 169.949 155.819 170.752 156.285C171.555 156.747 172.171 157.412 172.599 158.279C173.027 159.143 173.241 160.177 173.241 161.382C173.241 162.594 173.025 163.637 172.593 164.512C172.161 165.384 171.532 166.054 170.707 166.524C169.881 166.99 168.877 167.223 167.695 167.223ZM165.513 165.973H167.604C168.567 165.973 169.364 165.787 169.996 165.416C170.629 165.045 171.101 164.516 171.411 163.831C171.722 163.145 171.877 162.329 171.877 161.382C171.877 160.442 171.724 159.634 171.417 158.956C171.11 158.274 170.652 157.751 170.042 157.387C169.432 157.02 168.673 156.836 167.763 156.836H165.513V165.973ZM177.013 155.586V167.223H175.604V155.586H177.013ZM189.657 161.404C189.657 162.632 189.435 163.692 188.992 164.586C188.549 165.48 187.941 166.17 187.168 166.654C186.396 167.139 185.513 167.382 184.521 167.382C183.528 167.382 182.646 167.139 181.873 166.654C181.1 166.17 180.492 165.48 180.049 164.586C179.606 163.692 179.384 162.632 179.384 161.404C179.384 160.177 179.606 159.117 180.049 158.223C180.492 157.329 181.1 156.639 181.873 156.154C182.646 155.67 183.528 155.427 184.521 155.427C185.513 155.427 186.396 155.67 187.168 156.154C187.941 156.639 188.549 157.329 188.992 158.223C189.435 159.117 189.657 160.177 189.657 161.404ZM188.293 161.404C188.293 160.397 188.125 159.547 187.788 158.853C187.454 158.16 187.002 157.636 186.43 157.279C185.862 156.923 185.225 156.745 184.521 156.745C183.816 156.745 183.178 156.923 182.606 157.279C182.038 157.636 181.585 158.16 181.248 158.853C180.915 159.547 180.748 160.397 180.748 161.404C180.748 162.412 180.915 163.262 181.248 163.956C181.585 164.649 182.038 165.173 182.606 165.529C183.178 165.886 183.816 166.064 184.521 166.064C185.225 166.064 185.862 165.886 186.43 165.529C187.002 165.173 187.454 164.649 187.788 163.956C188.125 163.262 188.293 162.412 188.293 161.404Z" fill="white"/>
</svg>
