<svg width="33" height="27" viewBox="0 0 33 27" fill="none" xmlns="http://www.w3.org/2000/svg">
<path d="M32.9139 3.1395C31.7369 3.6625 30.4729 4.0155 29.1439 4.1725C30.4989 3.3605 31.5399 2.0745 32.0309 0.5425C30.7619 1.2935 29.3579 1.8415 27.8629 2.1345C26.6649 0.8595 24.9589 0.0625 23.0699 0.0625C19.4449 0.0625 16.5079 3.0005 16.5079 6.6255C16.5079 7.1395 16.5649 7.6415 16.6769 8.1215C11.2219 7.8475 6.38587 5.2345 3.14788 1.2635C2.58388 2.2335 2.25987 3.3605 2.25987 4.5635C2.25987 6.8415 3.41887 8.8495 5.17887 10.0275C4.10387 9.9925 3.09188 9.6985 2.20687 9.2065C2.20587 9.2335 2.20587 9.2625 2.20587 9.2885C2.20587 12.4695 4.46788 15.1225 7.47088 15.7255C6.92088 15.8745 6.34088 15.9555 5.74188 15.9555C5.31788 15.9555 4.90788 15.9145 4.50787 15.8385C5.34188 18.4445 7.76687 20.3425 10.6379 20.3965C8.39287 22.1565 5.56287 23.2075 2.48787 23.2075C1.95788 23.2075 1.43488 23.1765 0.921875 23.1155C3.82588 24.9755 7.27588 26.0625 10.9829 26.0625C23.0549 26.0625 29.6579 16.0615 29.6579 7.3875C29.6579 7.1035 29.6499 6.8195 29.6379 6.5375C30.9209 5.6125 32.0329 4.4575 32.9139 3.1395Z" fill="#55ACEE"/>
</svg>
