<svg width="69" height="69" viewBox="0 0 69 69" fill="none" xmlns="http://www.w3.org/2000/svg">
<g clip-path="url(#clip0_517_1515)">
<path d="M60 33.4619V29.0391C60 22.276 57.3134 15.79 52.5312 11.0078C47.749 6.22566 41.263 3.53906 34.5 3.53906C27.737 3.53906 21.251 6.22566 16.4688 11.0078C11.6866 15.79 9 22.276 9 29.0391V33.4619C6.4602 34.6878 4.31637 36.6034 2.81334 38.9897C1.31032 41.376 0.508685 44.1369 0.5 46.9571L0.5 47.9884C0.5045 51.9832 2.09343 55.8131 4.91819 58.6379C7.74295 61.4626 11.5729 63.0516 15.5677 63.0561H23.1667V31.8894H17.5V29.0391C17.5 24.5304 19.2911 20.2064 22.4792 17.0182C25.6673 13.8301 29.9913 12.0391 34.5 12.0391C39.0087 12.0391 43.3327 13.8301 46.5208 17.0182C49.7089 20.2064 51.5 24.5304 51.5 29.0391V31.8894H45.8333V54.5561H37.3333V63.0561H53.4323C57.4271 63.0516 61.257 61.4626 64.0818 58.6379C66.9066 55.8131 68.4955 51.9832 68.5 47.9884V46.9571C68.4913 44.1369 67.6897 41.376 66.1867 38.9897C64.6836 36.6034 62.5398 34.6878 60 33.4619ZM14.6667 54.4937C13.0947 54.2742 11.6552 53.4936 10.6138 52.2959C9.57228 51.0982 8.99911 49.5642 9 47.9771V46.9457C8.99911 45.3585 9.57228 43.8246 10.6138 42.6269C11.6552 41.4292 13.0947 40.6486 14.6667 40.4291V54.4937ZM60 47.9771C60.0009 49.5642 59.4277 51.0982 58.3862 52.2959C57.3448 53.4936 55.9053 54.2742 54.3333 54.4937V40.4517C55.9053 40.6712 57.3448 41.4519 58.3862 42.6496C59.4277 43.8473 60.0009 45.3812 60 46.9684V47.9771Z" fill="white"/>
</g>
<defs>
<clipPath id="clip0_517_1515">
<rect width="68" height="68" fill="white" transform="translate(0.5 0.722656)"/>
</clipPath>
</defs>
</svg>
