<svg width="45" height="19" viewBox="0 0 45 19" fill="none" xmlns="http://www.w3.org/2000/svg">
<path d="M6.83594 0.863281H19.1992C19.7461 0.882812 20.1953 1.08789 20.5469 1.47852C20.918 1.86914 21.1035 2.33789 21.1035 2.88477C21.0059 4.05664 20.3711 4.69141 19.1992 4.78906H7.83203C7.08984 4.82812 6.47461 5.11133 5.98633 5.63867C5.49805 6.16602 5.13672 6.77148 4.90234 7.45508C4.6875 8.11914 4.58008 8.80273 4.58008 9.50586C4.58008 10.209 4.6875 10.9023 4.90234 11.5859C5.13672 12.25 5.49805 12.8457 5.98633 13.373C6.47461 13.9004 7.08984 14.1836 7.83203 14.2227H16.7383C17.0898 14.2031 17.2754 14.0078 17.2949 13.6367V11.9375C17.2754 11.5469 17.0898 11.3516 16.7383 11.3516H9.23828C8.69141 11.3516 8.22266 11.166 7.83203 10.7949C7.46094 10.4043 7.27539 9.93555 7.27539 9.38867C7.27539 8.8418 7.46094 8.37305 7.83203 7.98242C8.22266 7.61133 8.69141 7.42578 9.23828 7.42578H19.2578C19.8047 7.42578 20.2734 7.61133 20.6641 7.98242C21.0156 8.35352 21.2012 8.80273 21.2207 9.33008V9.38867V16.2441C21.2012 16.7715 21.0156 17.2109 20.6641 17.5625C20.293 17.9336 19.8438 18.1289 19.3164 18.1484H6.83594C5.46875 18.0703 4.33594 17.5527 3.4375 16.5957C2.55859 15.6191 1.92383 14.5156 1.5332 13.2852C1.16211 12.0547 0.976562 10.7949 0.976562 9.50586C0.976562 8.2168 1.17188 6.95703 1.5625 5.72656C1.95312 4.49609 2.58789 3.40234 3.4668 2.44531C4.3457 1.46875 5.46875 0.941406 6.83594 0.863281ZM30.4199 0.863281H42.7832C43.3301 0.882812 43.7793 1.08789 44.1309 1.47852C44.502 1.86914 44.6875 2.33789 44.6875 2.88477C44.5898 4.05664 43.9551 4.69141 42.7832 4.78906H31.416C30.6738 4.82812 30.0586 5.11133 29.5703 5.63867C29.082 6.16602 28.7207 6.77148 28.4863 7.45508C28.2715 8.11914 28.1641 8.80273 28.1641 9.50586C28.1641 10.209 28.2715 10.9023 28.4863 11.5859C28.7207 12.25 29.082 12.8457 29.5703 13.373C30.0586 13.9004 30.6738 14.1836 31.416 14.2227H40.3223C40.6738 14.2031 40.8594 14.0078 40.8789 13.6367V11.9375C40.8594 11.5469 40.6738 11.3516 40.3223 11.3516H32.8223C32.2754 11.3516 31.8066 11.166 31.416 10.7949C31.0449 10.4043 30.8594 9.93555 30.8594 9.38867C30.8594 8.8418 31.0449 8.37305 31.416 7.98242C31.8066 7.61133 32.2754 7.42578 32.8223 7.42578H42.8418C43.3887 7.42578 43.8574 7.61133 44.248 7.98242C44.5996 8.35352 44.7852 8.80273 44.8047 9.33008V9.38867V16.2441C44.7852 16.7715 44.5996 17.2109 44.248 17.5625C43.877 17.9336 43.4277 18.1289 42.9004 18.1484H30.4199C29.0527 18.0703 27.9199 17.5527 27.0215 16.5957C26.1426 15.6191 25.5078 14.5156 25.1172 13.2852C24.7461 12.0547 24.5605 10.7949 24.5605 9.50586C24.5605 8.2168 24.7559 6.95703 25.1465 5.72656C25.5371 4.49609 26.1719 3.40234 27.0508 2.44531C27.9297 1.46875 29.0527 0.941406 30.4199 0.863281Z" fill="white"/>
</svg>
